# xmcd
# Track frame offsets:
# 150
# 14972
# 30205
# 47290
# 62525
# 83202
# 96345
# 115667
# 129177
# 147272
# 167972
# 183690
#
# Disc length: 2717 seconds
# Revision: 0
# Processed by: cddbd v1.4PL0 Copyright (c) Steve Scherf et al.
# Submitted via: VisiTrax 2.9.5.180 - For more info visit www.synapsa.com
#
DISCID=9a0a9b0c
DTITLE=Anita Carter - Yesterday
DYEAR=1900
DGENRE=
TTITLE0=Yesterday
TTITLE1=Mountain Lady
TTITLE2=I`ll Be All Smiles Tonight
TTITLE3=Too Far Gone
TTITLE4=Gain Control Again
TTITLE5=Isle Of Golden Dreams
TTITLE6=I Can See Clearly
TTITLE7=True Colors
TTITLE8=Don`t Worry About Me
TTITLE9=Since I Fell For You
TTITLE10=Hello
TTITLE11=Don`t Let The SUn Go Down
EXTD=With\nChet Atkins,John Carter Cash,Johnny Cash, Jack Clement\nLead Gui
EXTD=tar Chet Adkins\nHouse of Cash Records
EXTT0=
EXTT1=
EXTT2=
EXTT3=
EXTT4=
EXTT5=
EXTT6=
EXTT7=
EXTT8=
EXTT9=
EXTT10=
EXTT11=
PLAYORDER=
